<svg fill="none" height="32" viewBox="0 0 32 32" width="32" xmlns="http://www.w3.org/2000/svg"><g fill="#cdd8e4"><path d="m15.9989 1c-4.9037 0-8.6859 1.65419-11.23548 4.42276-2.53716 2.75509-3.76342 6.51504-3.76342 10.57614 0 2.77.5705 5.3999 1.73836 7.6664.33738-.6618.80256-1.2669 1.38785-1.7494-.7452-1.7569-1.12621-3.7628-1.12621-5.917 0-3.6703 1.10595-6.90979 3.23462-9.22131 2.11626-2.29803 5.33348-3.77759 9.76428-3.77759 4.4307 0 7.648 1.47956 9.7642 3.77759 2.1287 2.31152 3.2347 5.55101 3.2347 9.22131 0 3.6702-1.106 6.9098-3.2347 9.2213-2.1162 2.298-5.3335 3.7776-9.7642 3.7776-.316 0-.6257-.0076-.9294-.0224-.053.0486-.1086.0942-.1665.1367.0634.2082.097.4275.097.6518 0 .4379-.1258.8463-.3433 1.1912.4376.0283.885.0427 1.3422.0427 4.9037 0 8.6859-1.6542 11.2354-4.4228 2.5372-2.7551 3.7635-6.515 3.7635-10.5761s-1.2263-7.82105-3.7635-10.57614c-2.5495-2.76857-6.3317-4.42276-11.2354-4.42276z"/><path d="m13.3887 30.8307c.3657-.2146.6113-.612.6113-1.0668 0-.0953-.011-.1889-.0319-.2793-.0432-.1862-.1288-.3589-.2488-.505-.0411-.05-.0861-.0969-.1349-.1402-.0798-.0708-.1696-.1319-.2677-.181l-.3168-.1584h.7193c.4589 0 .8589-.3123.9702-.7575l.068-.2724c.1232-.4927-.2495-.9701-.7575-.9701l.3292-.1646c.4111-.2056.6708-.6258.6708-1.0854 0-.4597-.2597-.8798-.6708-1.0854l-.3292-.1646h1.75c.6904 0 1.25-.5596 1.25-1.25s-.5596-1.25-1.25-1.25h-5.74996v-3.0607c0-.7949-.6444-1.4393-1.43932-1.4393-.84075 0-1.5052.7181-1.51746 1.5588-.01987 1.3614-.20806 3.1628-1.04321 3.4412-3.0001 1-3.99996 5.5-1.50001 7.5 1.89076 1.5126 3.78141 1.5059 5.24968 1.5006.08488-.0003.16835-.0006.25032-.0006h2.76396c.2279 0 .4414-.0617.6248-.1693z"/><path d="m8.14645 6.14645c.39693-.39694 1.48363-1.14645 2.85355-1.14645 1.3699 0 2.4566.74951 2.8536 1.14645.1952.19526.1952.51184 0 .7071-.1953.19527-.5119.19527-.7072 0-.2697-.26973-1.1163-.85355-2.1464-.85355-1.03008 0-1.87671.58382-2.14645.85355-.19526.19527-.51184.19527-.7071 0-.19527-.19526-.19527-.51184 0-.7071z"/><path d="m18.1799 8.11589c.4707-.39221 1.7404-1.11589 3.3201-1.11589s2.8494.72368 3.3201 1.11589c.2121.17678.2408.49206.064.7042s-.4921.2408-.7042.06402c-.3293-.27445-1.3796-.88411-2.6799-.88411s-2.3506.60966-2.6799.88411c-.2121.17678-.5274.14812-.7042-.06402s-.1481-.52742.064-.7042z"/><path d="m10 14.5c1.6569 0 3-1.3431 3-3 0-1.65685-1.3431-3-3-3-1.65685 0-3 1.34315-3 3 0 1.6569 1.34315 3 3 3z"/><path d="m24 11.5c0 1.6569-1.3431 3-3 3s-3-1.3431-3-3c0-1.65685 1.3431-3 3-3s3 1.34315 3 3z"/><path d="m13.7071 19.7071c.3549-.3549 1.2042-.9214 2.3744-.7214 1.2205.2087 1.7308.8308 2.0115 1.4354.2326.5009.8272.7185 1.3281.4859s.7185-.8272.4859-1.3281c-.5146-1.1083-1.5255-2.229-3.4885-2.5646-2.0133-.3442-3.4805.6335-4.1256 1.2786-.3905.3905-.3905 1.0237 0 1.4142s1.0237.3905 1.4142 0z"/></g></svg>